<svg xmlns="http://www.w3.org/2000/svg" xmlns:xlink="http://www.w3.org/1999/xlink" width="500" zoomAndPan="magnify" viewBox="0 0 375 374.999991" height="500" preserveAspectRatio="xMidYMid meet" version="1.0"><defs><g/><clipPath id="313ee976e8"><path d="M 79.984375 114.007812 L 160.234375 114.007812 L 160.234375 221 L 79.984375 221 Z M 79.984375 114.007812 " clip-rule="nonzero"/></clipPath><clipPath id="7890cd8758"><path d="M 160.289062 200.78125 L 175.0625 200.78125 L 175.0625 215.558594 L 160.289062 215.558594 Z M 160.289062 200.78125 " clip-rule="nonzero"/></clipPath><clipPath id="3f2c84a10b"><path d="M 167.675781 200.78125 C 163.59375 200.78125 160.289062 204.089844 160.289062 208.171875 C 160.289062 212.25 163.59375 215.558594 167.675781 215.558594 C 171.757812 215.558594 175.0625 212.25 175.0625 208.171875 C 175.0625 204.089844 171.757812 200.78125 167.675781 200.78125 Z M 167.675781 200.78125 " clip-rule="nonzero"/></clipPath></defs><rect x="-37.5" width="450" fill="#ffffff" y="-37.499999" height="449.999989" fill-opacity="1"/><rect x="-37.5" width="450" fill="#ffffff" y="-37.499999" height="449.999989" fill-opacity="1"/><g clip-path="url(#313ee976e8)"><path fill="#040606" d="M 134.085938 127.78125 C 134.152344 127.863281 134.226562 127.929688 134.304688 127.988281 C 134.136719 129.222656 134.191406 131.695312 134.203125 132.128906 C 134.222656 133.074219 134.386719 133.835938 134.128906 134.742188 C 133.933594 135.425781 133.417969 136.054688 133.160156 136.734375 C 132.289062 139.023438 131.394531 141.390625 131.136719 143.847656 C 131.015625 145.007812 131.308594 145.691406 130.382812 146.460938 C 129.703125 147.027344 128.722656 147.171875 128.015625 147.761719 C 127.773438 147.960938 127.5625 148.140625 127.378906 148.3125 C 126.273438 147.828125 125.09375 147.429688 123.96875 147.195312 C 124.488281 146.609375 124.976562 145.867188 125.164062 145.394531 C 125.429688 144.726562 125.746094 144.882812 125.988281 144.210938 C 126.113281 143.863281 126.296875 142.949219 126.320312 142.574219 C 126.34375 142.226562 126.320312 141.996094 125.988281 142.101562 C 125.808594 140.375 125.960938 137.132812 121.742188 137.042969 C 117.519531 137.132812 117.671875 140.375 117.496094 142.101562 C 117.160156 141.996094 117.136719 142.226562 117.160156 142.574219 C 117.183594 142.949219 117.367188 143.863281 117.492188 144.210938 C 117.738281 144.882812 118.050781 144.726562 118.316406 145.394531 C 118.527344 145.925781 119.113281 146.789062 119.699219 147.394531 C 118.566406 147.835938 117.511719 148.550781 115.996094 149.175781 C 115.683594 148.765625 115.304688 148.417969 114.738281 147.949219 C 114.027344 147.359375 113.050781 147.210938 112.371094 146.648438 C 111.441406 145.875 111.738281 145.195312 111.613281 144.03125 C 111.355469 141.578125 110.464844 139.210938 109.589844 136.917969 C 109.332031 136.242188 108.820312 135.609375 108.625 134.925781 C 108.363281 134.023438 108.527344 133.261719 108.550781 132.316406 C 108.558594 131.894531 108.957031 129.128906 108.972656 127.640625 C 109.246094 127.269531 109.457031 126.808594 109.644531 126.320312 L 133.308594 126.320312 C 133.519531 126.867188 133.757812 127.390625 134.085938 127.78125 Z M 160.226562 124.21875 L 157.929688 124.21875 L 157.929688 116.0625 C 157.929688 114.925781 157.007812 114.003906 155.871094 114.003906 L 146.574219 114.003906 C 145.4375 114.003906 144.515625 114.925781 144.515625 116.0625 L 144.515625 124.21875 L 137.378906 124.21875 C 136.925781 123.671875 136.375 123.121094 136.113281 122.707031 C 132.832031 121.597656 132.625 123.058594 132.558594 124.21875 L 110.394531 124.21875 C 110.328125 123.058594 110.125 121.597656 106.839844 122.707031 C 106.578125 123.121094 106.027344 123.671875 105.574219 124.21875 L 95.703125 124.21875 L 95.703125 116.0625 C 95.703125 114.925781 94.78125 114.003906 93.644531 114.003906 L 84.347656 114.003906 C 83.210938 114.003906 82.289062 114.925781 82.289062 116.0625 L 82.289062 124.21875 L 79.992188 124.21875 L 79.992188 126.320312 L 82.289062 126.320312 L 82.289062 136.46875 C 82.289062 137.605469 83.210938 138.527344 84.347656 138.527344 L 93.644531 138.527344 C 94.78125 138.527344 95.703125 137.605469 95.703125 136.46875 L 95.703125 126.320312 L 105.050781 126.320312 C 105.277344 126.785156 105.6875 127.238281 106.167969 127.585938 C 106.03125 129.414062 105.894531 132.289062 105.660156 133.34375 C 105.390625 134.570312 105.304688 135.625 105.019531 136.910156 C 104.3125 140.101562 106.535156 141.542969 106.6875 142.835938 C 107.167969 146.9375 106.554688 148.320312 108.664062 151.457031 C 109.113281 152.125 110.015625 154.3125 110.824219 156.355469 C 111.316406 159.195312 112.625 160.589844 113.921875 162.316406 C 115.160156 163.964844 115.046875 166.660156 114.914062 171.839844 C 114.914062 171.839844 114.597656 171.496094 114.117188 173.96875 C 113.785156 175.074219 113.386719 176.644531 113.015625 178.789062 C 113.015625 178.789062 112.96875 178.90625 112.898438 179.128906 C 112.390625 180.265625 111.46875 184.222656 111.390625 184.734375 C 111.128906 186.417969 110.875 188.117188 110.777344 189.816406 C 110.75 190.328125 110.453125 193.320312 110.855469 193.527344 C 110.855469 193.527344 111.078125 193.644531 111.460938 193.8125 C 111.476562 194.816406 111.507812 195.675781 111.554688 196.144531 C 111.515625 196.949219 111.472656 199.648438 111.265625 200.503906 C 111.097656 201.210938 110.710938 201.855469 110.492188 202.554688 C 110.015625 204.074219 109.984375 205.714844 110.0625 207.265625 C 110.195312 209.867188 111.703125 212.292969 111.636719 214.894531 C 111.519531 214.910156 111.445312 214.921875 111.445312 214.921875 L 110.65625 216.5 C 110.164062 217.867188 109.835938 217.71875 109.566406 218.726562 C 109.4375 219.210938 109.65625 219.933594 110.113281 220.042969 C 110.113281 220.042969 112.949219 221.257812 114.675781 219.863281 L 114.695312 219.839844 C 114.527344 218.101562 114.136719 216.917969 113.8125 215.246094 C 113.746094 215.171875 113.660156 215.109375 113.5625 215.058594 C 113.722656 214.011719 113.878906 212.988281 114.121094 211.980469 C 114.46875 210.503906 114.480469 208.898438 115.082031 207.515625 C 115.777344 205.917969 116.304688 204.472656 115.816406 202.632812 C 115.625 201.921875 115.4375 201.277344 115.386719 200.574219 C 115.335938 199.859375 115.78125 197.855469 116.128906 197.082031 C 116.160156 197.019531 116.1875 196.960938 116.21875 196.902344 L 116.21875 196.894531 C 116.40625 196.519531 116.5625 196.179688 116.675781 195.941406 C 116.808594 195.65625 116.96875 195.320312 117.148438 194.949219 C 117.351562 194.921875 117.554688 194.890625 117.753906 194.84375 C 118.535156 191.96875 120.324219 189.804688 120.972656 186.660156 C 121.277344 185.523438 121.386719 184.6875 121.386719 184.6875 C 121.609375 183.613281 121.617188 182.132812 122.027344 181.648438 C 122.4375 182.132812 122.445312 183.613281 122.667969 184.6875 C 122.667969 184.6875 122.757812 185.386719 123.007812 186.375 C 123.015625 186.472656 123.019531 186.566406 123.035156 186.660156 C 123.683594 189.804688 125.472656 191.96875 126.253906 194.84375 C 126.46875 194.894531 126.6875 194.929688 126.910156 194.953125 C 127.085938 195.324219 127.246094 195.65625 127.378906 195.941406 C 127.492188 196.179688 127.648438 196.519531 127.835938 196.894531 L 127.835938 196.902344 C 127.867188 196.960938 127.898438 197.019531 127.925781 197.078125 C 128.273438 197.855469 128.71875 199.859375 128.667969 200.574219 C 128.617188 201.277344 128.429688 201.921875 128.238281 202.632812 C 127.75 204.472656 128.277344 205.917969 128.972656 207.515625 C 129.574219 208.898438 129.585938 210.503906 129.933594 211.980469 C 130.175781 212.988281 130.332031 214.011719 130.492188 215.058594 C 130.394531 215.109375 130.308594 215.171875 130.242188 215.246094 C 129.917969 216.917969 129.527344 218.101562 129.359375 219.839844 L 129.378906 219.863281 C 131.105469 221.257812 133.941406 220.042969 133.941406 220.042969 C 134.398438 219.933594 134.617188 219.210938 134.484375 218.726562 C 134.21875 217.71875 133.890625 217.867188 133.398438 216.5 L 132.609375 214.921875 C 132.609375 214.921875 132.539062 214.910156 132.417969 214.894531 C 132.351562 212.292969 133.859375 209.867188 133.992188 207.265625 C 134.070312 205.714844 134.039062 204.074219 133.5625 202.554688 C 133.34375 201.855469 132.957031 201.210938 132.789062 200.503906 C 132.582031 199.648438 132.539062 196.949219 132.5 196.144531 C 132.546875 195.671875 132.578125 194.804688 132.59375 193.792969 C 132.945312 193.636719 133.152344 193.527344 133.152344 193.527344 C 133.554688 193.320312 133.257812 190.328125 133.230469 189.816406 C 133.132812 188.117188 132.878906 186.417969 132.617188 184.734375 C 132.550781 184.3125 131.914062 181.546875 131.410156 179.953125 C 131.195312 179.203125 131.039062 178.789062 131.039062 178.789062 C 130.617188 176.359375 130.164062 174.660156 129.804688 173.550781 C 129.738281 172.882812 129.550781 171.667969 129.140625 171.839844 C 129.371094 170.578125 128.515625 168.648438 128.695312 167.355469 C 128.890625 165.929688 129.726562 163.007812 129.859375 161.546875 C 129.9375 160.664062 130.238281 160.039062 130.582031 159.363281 L 130.636719 159.460938 C 130.78125 159.09375 130.96875 158.613281 131.179688 158.070312 L 131.195312 158.035156 C 131.71875 156.660156 132.429688 155.507812 132.660156 154.347656 C 133.234375 152.957031 133.769531 151.738281 134.085938 151.269531 C 136.199219 148.132812 135.582031 146.75 136.0625 142.648438 C 136.214844 141.355469 138.441406 139.917969 137.730469 136.722656 C 137.445312 135.4375 137.363281 134.382812 137.089844 133.160156 C 136.816406 131.921875 137.175781 128.859375 137.089844 127.34375 C 137.4375 127.039062 137.726562 126.683594 137.902344 126.320312 L 144.515625 126.320312 L 144.515625 136.46875 C 144.515625 137.605469 145.4375 138.527344 146.574219 138.527344 L 155.871094 138.527344 C 157.007812 138.527344 157.929688 137.605469 157.929688 136.46875 L 157.929688 126.320312 L 160.226562 126.320312 L 160.226562 124.21875 " fill-opacity="1" fill-rule="nonzero"/></g><g clip-path="url(#7890cd8758)"><g clip-path="url(#3f2c84a10b)"><path fill="#000000" d="M 160.289062 200.78125 L 175.0625 200.78125 L 175.0625 215.558594 L 160.289062 215.558594 Z M 160.289062 200.78125 " fill-opacity="1" fill-rule="nonzero"/></g></g><g fill="#000000" fill-opacity="1"><g transform="translate(187.499992, 216.42622)"><g><path d="M 12.46875 -77.34375 C 12.644531 -77.4375 12.867188 -77.484375 13.140625 -77.484375 C 18.765625 -78.640625 21.867188 -79.257812 22.453125 -79.34375 C 23.035156 -79.4375 23.414062 -79.484375 23.59375 -79.484375 C 24.21875 -79.484375 24.617188 -79.21875 24.796875 -78.6875 C 24.972656 -78.144531 25.597656 -74.035156 26.671875 -66.359375 C 28.015625 -56.796875 28.953125 -50.316406 29.484375 -46.921875 C 30.472656 -40.835938 31.097656 -36.816406 31.359375 -34.859375 C 31.898438 -30.742188 32.304688 -28.6875 32.578125 -28.6875 C 32.578125 -28.6875 32.617188 -28.6875 32.703125 -28.6875 C 32.796875 -28.6875 32.882812 -28.773438 32.96875 -28.953125 C 33.332031 -29.578125 34.003906 -32.210938 34.984375 -36.859375 C 37.128906 -46.773438 39.363281 -56.160156 41.6875 -65.015625 L 42.09375 -66.890625 L 52.8125 -67.15625 C 56.382812 -67.25 59.109375 -67.296875 60.984375 -67.296875 C 62.867188 -67.296875 63.851562 -67.25 63.9375 -67.15625 C 64.113281 -66.976562 64.695312 -64.832031 65.6875 -60.71875 C 66.9375 -54.644531 68.160156 -48.972656 69.359375 -43.703125 C 70.566406 -38.429688 71.53125 -34.316406 72.25 -31.359375 C 72.96875 -28.410156 73.367188 -26.9375 73.453125 -26.9375 C 73.898438 -27.300781 74.972656 -33.289062 76.671875 -44.90625 C 80.160156 -67.875 81.90625 -79.398438 81.90625 -79.484375 C 81.90625 -79.484375 81.945312 -79.484375 82.03125 -79.484375 C 82.570312 -79.484375 86.367188 -78.859375 93.421875 -77.609375 C 100.484375 -76.359375 104.148438 -75.597656 104.421875 -75.328125 C 104.421875 -75.328125 104.421875 -75.238281 104.421875 -75.0625 C 104.421875 -74.351562 103.90625 -71.984375 102.875 -67.953125 C 101.851562 -63.929688 98.925781 -52.675781 94.09375 -34.1875 C 89 -14.96875 86.097656 -3.972656 85.390625 -1.203125 C 85.296875 -0.578125 84.78125 -0.21875 83.84375 -0.125 C 82.90625 -0.0390625 79.710938 0 74.265625 0 L 63.40625 0 L 62.0625 -5.5 C 60.71875 -10.5 59.820312 -13.804688 59.375 -15.421875 C 58.039062 -19.890625 56.835938 -24.488281 55.765625 -29.21875 C 54.148438 -35.207031 53.253906 -38.335938 53.078125 -38.609375 C 52.816406 -38.609375 51.878906 -35.75 50.265625 -30.03125 C 49.816406 -28.59375 49.28125 -26.894531 48.65625 -24.9375 C 48.300781 -23.5 47.8125 -21.707031 47.1875 -19.5625 C 46.5625 -17.425781 45.910156 -15.148438 45.234375 -12.734375 C 44.566406 -10.316406 44.144531 -8.707031 43.96875 -7.90625 L 41.546875 0 L 20.109375 0 L 19.171875 -4.296875 C 18.097656 -9.023438 16.128906 -17.507812 13.265625 -29.75 C 10.410156 -42 8.222656 -50.847656 6.703125 -56.296875 C 3.660156 -67.734375 2.140625 -73.945312 2.140625 -74.9375 C 2.140625 -75.019531 2.140625 -75.0625 2.140625 -75.0625 C 2.234375 -75.15625 5.675781 -75.914062 12.46875 -77.34375 Z M 12.46875 -77.34375 "/></g></g></g><g fill="#000000" fill-opacity="1"><g transform="translate(22.504667, 262.422264)"><g><path d="M 0.28125 -25.9375 L 21.9375 -25.9375 L 21.9375 -19.4375 L 14.875 -19.4375 L 14.875 0 L 7.390625 -0.046875 L 7.34375 -19.4375 L 0.28125 -19.4375 Z M 0.28125 -25.9375 "/></g></g></g><g fill="#000000" fill-opacity="1"><g transform="translate(44.716094, 262.422264)"><g><path d="M 6.78125 -19.390625 C 7.375 -19.578125 8.5 -19.671875 10.15625 -19.671875 C 11.820312 -19.671875 13.066406 -19.59375 13.890625 -19.4375 C 15.421875 -19.125 16.703125 -18.445312 17.734375 -17.40625 C 18.773438 -16.375 19.421875 -15.101562 19.671875 -13.59375 C 19.765625 -13.0625 19.8125 -12.125 19.8125 -10.78125 C 19.8125 -10.3125 19.796875 -9.367188 19.765625 -7.953125 C 19.734375 -6.535156 19.640625 -5.546875 19.484375 -4.984375 C 18.421875 -1.191406 15.394531 0.703125 10.40625 0.703125 C 10.0625 0.703125 9.695312 0.6875 9.3125 0.65625 C 6.082031 0.46875 3.828125 -0.675781 2.546875 -2.78125 C 2.097656 -3.5625 1.828125 -4.269531 1.734375 -4.90625 C 1.640625 -5.550781 1.546875 -6.894531 1.453125 -8.9375 C 1.453125 -9.25 1.453125 -9.566406 1.453125 -9.890625 C 1.453125 -11.921875 1.554688 -13.421875 1.765625 -14.390625 C 1.972656 -15.367188 2.515625 -16.328125 3.390625 -17.265625 C 4.359375 -18.304688 5.488281 -19.015625 6.78125 -19.390625 Z M 12.75 -12.984375 C 12.59375 -13.140625 12.40625 -13.234375 12.1875 -13.265625 C 11.96875 -13.296875 11.484375 -13.3125 10.734375 -13.3125 C 9.566406 -13.3125 8.875 -13.234375 8.65625 -13.078125 C 8.46875 -13.015625 8.3125 -12.828125 8.1875 -12.515625 C 8.0625 -12.203125 8 -11.222656 8 -9.578125 C 8 -7.929688 8.0625 -6.984375 8.1875 -6.734375 C 8.375 -6.421875 8.628906 -6.207031 8.953125 -6.09375 C 9.285156 -5.988281 9.722656 -5.9375 10.265625 -5.9375 C 10.390625 -5.9375 10.53125 -5.9375 10.6875 -5.9375 C 11.625 -5.96875 12.203125 -6.078125 12.421875 -6.265625 C 12.796875 -6.578125 13.015625 -6.890625 13.078125 -7.203125 C 13.140625 -7.515625 13.171875 -8.078125 13.171875 -8.890625 C 13.171875 -9.203125 13.171875 -9.566406 13.171875 -9.984375 C 13.171875 -11.359375 13.15625 -12.171875 13.125 -12.421875 C 13.09375 -12.671875 12.96875 -12.859375 12.75 -12.984375 Z M 12.75 -12.984375 "/></g></g></g><g fill="#000000" fill-opacity="1"><g transform="translate(65.9393, 262.422264)"><g><path d="M 6.21875 -18.640625 C 6.78125 -18.796875 7.488281 -18.878906 8.34375 -18.890625 C 9.207031 -18.910156 9.753906 -18.921875 9.984375 -18.921875 C 11.171875 -18.921875 12.078125 -18.84375 12.703125 -18.6875 C 13.015625 -18.65625 13.234375 -18.640625 13.359375 -18.640625 C 13.515625 -18.640625 13.59375 -18.65625 13.59375 -18.6875 C 13.59375 -18.84375 14.722656 -18.921875 16.984375 -18.921875 L 20.375 -18.921875 L 20.328125 -8.375 C 20.328125 -1.125 20.25 2.796875 20.09375 3.390625 C 19.6875 5.210938 18.789062 6.53125 17.40625 7.34375 C 16.03125 8.15625 14.023438 8.59375 11.390625 8.65625 C 9.191406 8.65625 7.46875 8.328125 6.21875 7.671875 C 4.113281 6.546875 2.78125 4.851562 2.21875 2.59375 L 7.625 0.75 C 7.75 0.8125 7.875 1 8 1.3125 C 8.3125 1.976562 9.128906 2.359375 10.453125 2.453125 C 10.609375 2.453125 10.75 2.453125 10.875 2.453125 C 12.03125 2.453125 12.859375 2.210938 13.359375 1.734375 C 13.546875 1.546875 13.664062 1.363281 13.71875 1.1875 C 13.769531 1.019531 13.796875 0.40625 13.796875 -0.65625 C 13.796875 -1.40625 13.726562 -1.78125 13.59375 -1.78125 C 13.5625 -1.78125 13.53125 -1.765625 13.5 -1.734375 C 12.59375 -1.296875 11.601562 -1.015625 10.53125 -0.890625 C 9.46875 -0.765625 8.6875 -0.703125 8.1875 -0.703125 C 7.5 -0.703125 6.921875 -0.765625 6.453125 -0.890625 C 3.910156 -1.648438 2.320312 -3.265625 1.6875 -5.734375 C 1.5 -6.492188 1.40625 -7.796875 1.40625 -9.640625 C 1.40625 -11.648438 1.539062 -13.132812 1.8125 -14.09375 C 2.082031 -15.050781 2.609375 -15.9375 3.390625 -16.75 C 4.140625 -17.632812 5.082031 -18.265625 6.21875 -18.640625 Z M 13.453125 -12.9375 C 13.109375 -13 12.613281 -13.046875 11.96875 -13.078125 C 11.332031 -13.109375 10.90625 -13.125 10.6875 -13.125 C 10.1875 -13.125 9.835938 -13.09375 9.640625 -13.03125 C 8.984375 -12.9375 8.5625 -12.703125 8.375 -12.328125 C 8.1875 -11.953125 8.09375 -11.203125 8.09375 -10.078125 C 8.09375 -9.003906 8.160156 -8.285156 8.296875 -7.921875 C 8.441406 -7.566406 8.71875 -7.28125 9.125 -7.0625 C 9.4375 -6.9375 9.832031 -6.875 10.3125 -6.875 C 10.5 -6.875 10.84375 -6.894531 11.34375 -6.9375 C 11.84375 -6.988281 12.375 -7.140625 12.9375 -7.390625 L 13.796875 -7.8125 L 13.796875 -10.359375 C 13.796875 -11.609375 13.769531 -12.34375 13.71875 -12.5625 C 13.664062 -12.78125 13.578125 -12.90625 13.453125 -12.9375 Z M 13.453125 -12.9375 "/></g></g></g><g fill="#000000" fill-opacity="1"><g transform="translate(88.527207, 262.422264)"><g><path d="M 7.859375 -19.296875 C 8.484375 -19.421875 9.472656 -19.484375 10.828125 -19.484375 C 11.015625 -19.484375 11.554688 -19.472656 12.453125 -19.453125 C 13.347656 -19.441406 14.15625 -19.34375 14.875 -19.15625 C 15.9375 -18.96875 16.867188 -18.582031 17.671875 -18 C 18.472656 -17.414062 19.035156 -16.753906 19.359375 -16.015625 C 19.691406 -15.285156 19.875 -14.613281 19.90625 -14 C 19.9375 -13.382812 19.953125 -13.015625 19.953125 -12.890625 C 19.953125 -11.984375 19.8125 -11.1875 19.53125 -10.5 C 19.09375 -9.332031 18.253906 -8.5 17.015625 -8 C 15.773438 -7.5 13.882812 -7.203125 11.34375 -7.109375 C 9.769531 -7.078125 8.859375 -7.046875 8.609375 -7.015625 C 8.359375 -6.984375 8.234375 -6.890625 8.234375 -6.734375 C 8.234375 -6.578125 8.34375 -6.375 8.5625 -6.125 C 8.90625 -5.769531 9.832031 -5.59375 11.34375 -5.59375 C 11.78125 -5.59375 12.265625 -5.609375 12.796875 -5.640625 C 13.679688 -5.671875 14.390625 -5.742188 14.921875 -5.859375 C 15.453125 -5.972656 16.1875 -6.21875 17.125 -6.59375 L 18.3125 -7.015625 L 18.828125 -5.40625 C 19.390625 -3.375 19.671875 -2.210938 19.671875 -1.921875 C 19.671875 -1.890625 19.671875 -1.875 19.671875 -1.875 C 19.609375 -1.75 19.34375 -1.578125 18.875 -1.359375 C 16.675781 -0.265625 14.835938 0.285156 13.359375 0.296875 C 11.890625 0.316406 11.109375 0.328125 11.015625 0.328125 C 8.285156 0.328125 6.179688 -0.15625 4.703125 -1.125 C 3.953125 -1.65625 3.3125 -2.3125 2.78125 -3.09375 C 2.25 -3.882812 1.898438 -4.71875 1.734375 -5.59375 C 1.640625 -6.070312 1.59375 -7.296875 1.59375 -9.265625 C 1.59375 -11.242188 1.640625 -12.515625 1.734375 -13.078125 C 1.929688 -14.335938 2.378906 -15.453125 3.078125 -16.421875 C 3.785156 -17.398438 4.640625 -18.125 5.640625 -18.59375 C 6.367188 -18.9375 7.109375 -19.171875 7.859375 -19.296875 Z M 14.078125 -14.3125 C 13.722656 -14.4375 13.171875 -14.5 12.421875 -14.5 C 12.046875 -14.5 11.394531 -14.46875 10.46875 -14.40625 C 9.539062 -14.34375 8.984375 -14.1875 8.796875 -13.9375 C 8.609375 -13.738281 8.457031 -13.40625 8.34375 -12.9375 C 8.238281 -12.46875 8.1875 -12.140625 8.1875 -11.953125 C 8.1875 -11.859375 8.203125 -11.796875 8.234375 -11.765625 C 8.296875 -11.671875 8.941406 -11.625 10.171875 -11.625 C 10.484375 -11.625 10.828125 -11.625 11.203125 -11.625 C 12.421875 -11.625 13.21875 -11.738281 13.59375 -11.96875 C 13.976562 -12.207031 14.21875 -12.671875 14.3125 -13.359375 C 14.3125 -13.421875 14.3125 -13.5 14.3125 -13.59375 C 14.3125 -13.976562 14.234375 -14.21875 14.078125 -14.3125 Z M 14.078125 -14.3125 "/></g></g></g><g fill="#000000" fill-opacity="1"><g transform="translate(109.891583, 262.422264)"><g><path d="M 3.953125 -25.890625 L 11.0625 -25.890625 L 11.0625 -19.109375 L 15.34375 -19.015625 L 15.34375 -13.078125 L 11.0625 -13.078125 L 11.0625 -10.40625 C 11.0625 -8.707031 11.066406 -7.671875 11.078125 -7.296875 C 11.097656 -6.921875 11.1875 -6.65625 11.34375 -6.5 C 11.71875 -6.082031 12.582031 -5.875 13.9375 -5.875 L 15.15625 -5.875 L 15.15625 -2.828125 C 15.15625 -1.441406 15.140625 -0.566406 15.109375 -0.203125 C 15.078125 0.148438 15.015625 0.34375 14.921875 0.375 C 14.734375 0.46875 14.054688 0.515625 12.890625 0.515625 C 12.703125 0.515625 12.160156 0.503906 11.265625 0.484375 C 10.378906 0.472656 9.742188 0.421875 9.359375 0.328125 C 7.328125 -0.140625 5.976562 -1.019531 5.3125 -2.3125 C 4.8125 -3.25 4.457031 -4.148438 4.25 -5.015625 C 4.050781 -5.878906 3.953125 -7.582031 3.953125 -10.125 L 3.953125 -13.078125 L 0.65625 -13.078125 L 0.65625 -19.015625 L 3.953125 -19.109375 Z M 3.953125 -25.890625 "/></g></g></g><g fill="#000000" fill-opacity="1"><g transform="translate(126.079572, 262.422264)"><g><path d="M 2.265625 0 L 2.265625 -27.0625 L 9.5 -27.0625 L 9.5 -18.6875 L 10.171875 -19.015625 C 10.609375 -19.265625 11.28125 -19.453125 12.1875 -19.578125 C 12.65625 -19.640625 13.109375 -19.671875 13.546875 -19.671875 C 14.992188 -19.671875 16.398438 -19.300781 17.765625 -18.5625 C 19.128906 -17.820312 20.015625 -16.703125 20.421875 -15.203125 C 20.578125 -14.609375 20.65625 -11.800781 20.65625 -6.78125 L 20.65625 0.046875 L 13.5 0.046875 L 13.359375 -1.5 C 13.296875 -2.507812 13.265625 -4.613281 13.265625 -7.8125 L 13.265625 -13.21875 L 12.9375 -13.5 C 12.65625 -13.695312 12.375 -13.800781 12.09375 -13.8125 C 11.8125 -13.832031 11.640625 -13.84375 11.578125 -13.84375 C 11.109375 -13.84375 10.640625 -13.742188 10.171875 -13.546875 L 9.5 -13.3125 L 9.5 0.1875 L 8.515625 0.1875 C 7.796875 0.1875 6.617188 0.140625 4.984375 0.046875 Z M 2.265625 0 "/></g></g></g><g fill="#000000" fill-opacity="1"><g transform="translate(148.714536, 262.422264)"><g><path d="M 7.859375 -19.296875 C 8.484375 -19.421875 9.472656 -19.484375 10.828125 -19.484375 C 11.015625 -19.484375 11.554688 -19.472656 12.453125 -19.453125 C 13.347656 -19.441406 14.15625 -19.34375 14.875 -19.15625 C 15.9375 -18.96875 16.867188 -18.582031 17.671875 -18 C 18.472656 -17.414062 19.035156 -16.753906 19.359375 -16.015625 C 19.691406 -15.285156 19.875 -14.613281 19.90625 -14 C 19.9375 -13.382812 19.953125 -13.015625 19.953125 -12.890625 C 19.953125 -11.984375 19.8125 -11.1875 19.53125 -10.5 C 19.09375 -9.332031 18.253906 -8.5 17.015625 -8 C 15.773438 -7.5 13.882812 -7.203125 11.34375 -7.109375 C 9.769531 -7.078125 8.859375 -7.046875 8.609375 -7.015625 C 8.359375 -6.984375 8.234375 -6.890625 8.234375 -6.734375 C 8.234375 -6.578125 8.34375 -6.375 8.5625 -6.125 C 8.90625 -5.769531 9.832031 -5.59375 11.34375 -5.59375 C 11.78125 -5.59375 12.265625 -5.609375 12.796875 -5.640625 C 13.679688 -5.671875 14.390625 -5.742188 14.921875 -5.859375 C 15.453125 -5.972656 16.1875 -6.21875 17.125 -6.59375 L 18.3125 -7.015625 L 18.828125 -5.40625 C 19.390625 -3.375 19.671875 -2.210938 19.671875 -1.921875 C 19.671875 -1.890625 19.671875 -1.875 19.671875 -1.875 C 19.609375 -1.75 19.34375 -1.578125 18.875 -1.359375 C 16.675781 -0.265625 14.835938 0.285156 13.359375 0.296875 C 11.890625 0.316406 11.109375 0.328125 11.015625 0.328125 C 8.285156 0.328125 6.179688 -0.15625 4.703125 -1.125 C 3.953125 -1.65625 3.3125 -2.3125 2.78125 -3.09375 C 2.25 -3.882812 1.898438 -4.71875 1.734375 -5.59375 C 1.640625 -6.070312 1.59375 -7.296875 1.59375 -9.265625 C 1.59375 -11.242188 1.640625 -12.515625 1.734375 -13.078125 C 1.929688 -14.335938 2.378906 -15.453125 3.078125 -16.421875 C 3.785156 -17.398438 4.640625 -18.125 5.640625 -18.59375 C 6.367188 -18.9375 7.109375 -19.171875 7.859375 -19.296875 Z M 14.078125 -14.3125 C 13.722656 -14.4375 13.171875 -14.5 12.421875 -14.5 C 12.046875 -14.5 11.394531 -14.46875 10.46875 -14.40625 C 9.539062 -14.34375 8.984375 -14.1875 8.796875 -13.9375 C 8.609375 -13.738281 8.457031 -13.40625 8.34375 -12.9375 C 8.238281 -12.46875 8.1875 -12.140625 8.1875 -11.953125 C 8.1875 -11.859375 8.203125 -11.796875 8.234375 -11.765625 C 8.296875 -11.671875 8.941406 -11.625 10.171875 -11.625 C 10.484375 -11.625 10.828125 -11.625 11.203125 -11.625 C 12.421875 -11.625 13.21875 -11.738281 13.59375 -11.96875 C 13.976562 -12.207031 14.21875 -12.671875 14.3125 -13.359375 C 14.3125 -13.421875 14.3125 -13.5 14.3125 -13.59375 C 14.3125 -13.976562 14.234375 -14.21875 14.078125 -14.3125 Z M 14.078125 -14.3125 "/></g></g></g><g fill="#000000" fill-opacity="1"><g transform="translate(170.078912, 262.422264)"><g><path d="M 10.78125 -18.96875 C 11.65625 -19.65625 12.171875 -20.035156 12.328125 -20.109375 C 12.484375 -20.191406 12.59375 -20.234375 12.65625 -20.234375 C 12.75 -20.234375 12.832031 -20.191406 12.90625 -20.109375 C 12.988281 -20.035156 13.519531 -19.265625 14.5 -17.796875 L 15.90625 -15.71875 L 14.21875 -14.640625 C 13.082031 -13.910156 11.921875 -13.078125 10.734375 -12.140625 L 8.9375 -10.78125 L 8.9375 0 L 2.265625 0 L 2.265625 -19.15625 L 8.9375 -19.15625 L 8.984375 -17.5 Z M 10.78125 -18.96875 "/></g></g></g><g fill="#000000" fill-opacity="1"><g transform="translate(185.090452, 262.422264)"><g/></g></g><g fill="#000000" fill-opacity="1"><g transform="translate(196.854987, 262.422264)"><g><path d="M 4.328125 -26.265625 C 4.859375 -26.296875 5.445312 -26.347656 6.09375 -26.421875 C 6.738281 -26.503906 7.21875 -26.5625 7.53125 -26.59375 C 7.84375 -26.625 8 -26.671875 8 -26.734375 C 8.125 -26.734375 8.265625 -26.195312 8.421875 -25.125 C 8.484375 -24.8125 8.566406 -24.234375 8.671875 -23.390625 C 8.785156 -22.546875 8.890625 -21.929688 8.984375 -21.546875 C 9.390625 -19.078125 9.820312 -16.554688 10.28125 -13.984375 C 10.738281 -11.410156 11 -10.078125 11.0625 -9.984375 L 11.296875 -10.5 C 11.296875 -10.59375 11.3125 -10.6875 11.34375 -10.78125 C 11.4375 -11.1875 11.59375 -11.828125 11.8125 -12.703125 C 12 -13.523438 12.359375 -15.140625 12.890625 -17.546875 C 13.296875 -19.429688 13.691406 -21.144531 14.078125 -22.6875 C 14.296875 -23.59375 14.4375 -24.296875 14.5 -24.796875 L 14.640625 -25.515625 L 18.03125 -25.515625 C 20.34375 -25.515625 21.5 -25.476562 21.5 -25.40625 C 21.5 -25.34375 21.769531 -24.039062 22.3125 -21.5 C 23.0625 -18.019531 23.5 -15.96875 23.625 -15.34375 C 24.4375 -11.632812 24.90625 -9.78125 25.03125 -9.78125 C 25.09375 -9.78125 25.1875 -10.097656 25.3125 -10.734375 C 25.539062 -12.015625 25.84375 -13.613281 26.21875 -15.53125 C 26.78125 -18.726562 27.140625 -20.71875 27.296875 -21.5 C 27.859375 -24.644531 28.203125 -26.265625 28.328125 -26.359375 C 28.328125 -26.421875 28.40625 -26.453125 28.5625 -26.453125 C 28.71875 -26.390625 29.910156 -26.265625 32.140625 -26.078125 C 34.273438 -25.890625 35.359375 -25.78125 35.390625 -25.75 C 35.390625 -25.75 35.390625 -25.734375 35.390625 -25.703125 C 35.390625 -25.285156 34.90625 -22.867188 33.9375 -18.453125 C 32.238281 -10.890625 31.1875 -6.269531 30.78125 -4.59375 C 30.375 -2.914062 30.03125 -1.398438 29.75 -0.046875 L 21.546875 -0.046875 L 21.359375 -1.078125 C 21.078125 -2.054688 20.515625 -4.300781 19.671875 -7.8125 C 18.640625 -11.894531 18.09375 -13.96875 18.03125 -14.03125 C 18 -14.03125 17.953125 -13.984375 17.890625 -13.890625 C 17.828125 -13.691406 16.851562 -9.625 14.96875 -1.6875 L 14.5 -0.046875 L 6.265625 -0.046875 L 5.875 -1.921875 C 5.40625 -3.992188 5.0625 -5.535156 4.84375 -6.546875 C 4.28125 -9.304688 3.921875 -11.015625 3.765625 -11.671875 C 3.359375 -13.742188 3.03125 -15.34375 2.78125 -16.46875 C 2.46875 -17.789062 2.101562 -19.390625 1.6875 -21.265625 C 1.46875 -22.367188 1.21875 -23.546875 0.9375 -24.796875 C 0.84375 -25.429688 0.796875 -25.75 0.796875 -25.75 C 0.828125 -25.75 2.003906 -25.921875 4.328125 -26.265625 Z M 4.328125 -26.265625 "/></g></g></g><g fill="#000000" fill-opacity="1"><g transform="translate(233.042675, 262.422264)"><g><path d="M 6.78125 -19.390625 C 7.375 -19.578125 8.5 -19.671875 10.15625 -19.671875 C 11.820312 -19.671875 13.066406 -19.59375 13.890625 -19.4375 C 15.421875 -19.125 16.703125 -18.445312 17.734375 -17.40625 C 18.773438 -16.375 19.421875 -15.101562 19.671875 -13.59375 C 19.765625 -13.0625 19.8125 -12.125 19.8125 -10.78125 C 19.8125 -10.3125 19.796875 -9.367188 19.765625 -7.953125 C 19.734375 -6.535156 19.640625 -5.546875 19.484375 -4.984375 C 18.421875 -1.191406 15.394531 0.703125 10.40625 0.703125 C 10.0625 0.703125 9.695312 0.6875 9.3125 0.65625 C 6.082031 0.46875 3.828125 -0.675781 2.546875 -2.78125 C 2.097656 -3.5625 1.828125 -4.269531 1.734375 -4.90625 C 1.640625 -5.550781 1.546875 -6.894531 1.453125 -8.9375 C 1.453125 -9.25 1.453125 -9.566406 1.453125 -9.890625 C 1.453125 -11.921875 1.554688 -13.421875 1.765625 -14.390625 C 1.972656 -15.367188 2.515625 -16.328125 3.390625 -17.265625 C 4.359375 -18.304688 5.488281 -19.015625 6.78125 -19.390625 Z M 12.75 -12.984375 C 12.59375 -13.140625 12.40625 -13.234375 12.1875 -13.265625 C 11.96875 -13.296875 11.484375 -13.3125 10.734375 -13.3125 C 9.566406 -13.3125 8.875 -13.234375 8.65625 -13.078125 C 8.46875 -13.015625 8.3125 -12.828125 8.1875 -12.515625 C 8.0625 -12.203125 8 -11.222656 8 -9.578125 C 8 -7.929688 8.0625 -6.984375 8.1875 -6.734375 C 8.375 -6.421875 8.628906 -6.207031 8.953125 -6.09375 C 9.285156 -5.988281 9.722656 -5.9375 10.265625 -5.9375 C 10.390625 -5.9375 10.53125 -5.9375 10.6875 -5.9375 C 11.625 -5.96875 12.203125 -6.078125 12.421875 -6.265625 C 12.796875 -6.578125 13.015625 -6.890625 13.078125 -7.203125 C 13.140625 -7.515625 13.171875 -8.078125 13.171875 -8.890625 C 13.171875 -9.203125 13.171875 -9.566406 13.171875 -9.984375 C 13.171875 -11.359375 13.15625 -12.171875 13.125 -12.421875 C 13.09375 -12.671875 12.96875 -12.859375 12.75 -12.984375 Z M 12.75 -12.984375 "/></g></g></g><g fill="#000000" fill-opacity="1"><g transform="translate(254.265881, 262.422264)"><g><path d="M 10.78125 -18.96875 C 11.65625 -19.65625 12.171875 -20.035156 12.328125 -20.109375 C 12.484375 -20.191406 12.59375 -20.234375 12.65625 -20.234375 C 12.75 -20.234375 12.832031 -20.191406 12.90625 -20.109375 C 12.988281 -20.035156 13.519531 -19.265625 14.5 -17.796875 L 15.90625 -15.71875 L 14.21875 -14.640625 C 13.082031 -13.910156 11.921875 -13.078125 10.734375 -12.140625 L 8.9375 -10.78125 L 8.9375 0 L 2.265625 0 L 2.265625 -19.15625 L 8.9375 -19.15625 L 8.984375 -17.5 Z M 10.78125 -18.96875 "/></g></g></g><g fill="#000000" fill-opacity="1"><g transform="translate(269.277421, 262.422264)"><g><path d="M 2.265625 0 L 2.265625 -27.0625 L 9.5 -27.0625 L 9.5 -20.28125 L 9.546875 -14.078125 L 11.53125 -15.625 C 12.65625 -16.53125 13.800781 -17.472656 14.96875 -18.453125 L 16.703125 -20.046875 L 17.171875 -19.53125 C 19.648438 -16.738281 20.890625 -15.3125 20.890625 -15.25 L 14.3125 -9.78125 L 21.078125 -2.78125 L 16.328125 1.171875 L 9.5 -5.9375 L 9.5 0 Z M 2.265625 0 "/></g></g></g><g fill="#000000" fill-opacity="1"><g transform="translate(291.112392, 262.422264)"><g><path d="M 6.78125 -19.390625 C 7.375 -19.578125 8.5 -19.671875 10.15625 -19.671875 C 11.820312 -19.671875 13.066406 -19.59375 13.890625 -19.4375 C 15.421875 -19.125 16.703125 -18.445312 17.734375 -17.40625 C 18.773438 -16.375 19.421875 -15.101562 19.671875 -13.59375 C 19.765625 -13.0625 19.8125 -12.125 19.8125 -10.78125 C 19.8125 -10.3125 19.796875 -9.367188 19.765625 -7.953125 C 19.734375 -6.535156 19.640625 -5.546875 19.484375 -4.984375 C 18.421875 -1.191406 15.394531 0.703125 10.40625 0.703125 C 10.0625 0.703125 9.695312 0.6875 9.3125 0.65625 C 6.082031 0.46875 3.828125 -0.675781 2.546875 -2.78125 C 2.097656 -3.5625 1.828125 -4.269531 1.734375 -4.90625 C 1.640625 -5.550781 1.546875 -6.894531 1.453125 -8.9375 C 1.453125 -9.25 1.453125 -9.566406 1.453125 -9.890625 C 1.453125 -11.921875 1.554688 -13.421875 1.765625 -14.390625 C 1.972656 -15.367188 2.515625 -16.328125 3.390625 -17.265625 C 4.359375 -18.304688 5.488281 -19.015625 6.78125 -19.390625 Z M 12.75 -12.984375 C 12.59375 -13.140625 12.40625 -13.234375 12.1875 -13.265625 C 11.96875 -13.296875 11.484375 -13.3125 10.734375 -13.3125 C 9.566406 -13.3125 8.875 -13.234375 8.65625 -13.078125 C 8.46875 -13.015625 8.3125 -12.828125 8.1875 -12.515625 C 8.0625 -12.203125 8 -11.222656 8 -9.578125 C 8 -7.929688 8.0625 -6.984375 8.1875 -6.734375 C 8.375 -6.421875 8.628906 -6.207031 8.953125 -6.09375 C 9.285156 -5.988281 9.722656 -5.9375 10.265625 -5.9375 C 10.390625 -5.9375 10.53125 -5.9375 10.6875 -5.9375 C 11.625 -5.96875 12.203125 -6.078125 12.421875 -6.265625 C 12.796875 -6.578125 13.015625 -6.890625 13.078125 -7.203125 C 13.140625 -7.515625 13.171875 -8.078125 13.171875 -8.890625 C 13.171875 -9.203125 13.171875 -9.566406 13.171875 -9.984375 C 13.171875 -11.359375 13.15625 -12.171875 13.125 -12.421875 C 13.09375 -12.671875 12.96875 -12.859375 12.75 -12.984375 Z M 12.75 -12.984375 "/></g></g></g><g fill="#000000" fill-opacity="1"><g transform="translate(312.335598, 262.422264)"><g><path d="M 1.984375 -12.796875 L 1.984375 -19.109375 L 8.84375 -19.109375 L 8.9375 -13.359375 C 8.96875 -10.628906 8.988281 -8.910156 9 -8.203125 C 9.019531 -7.503906 9.09375 -7.09375 9.21875 -6.96875 C 9.53125 -6.40625 10.019531 -6.078125 10.6875 -5.984375 C 10.78125 -5.984375 10.875 -5.984375 10.96875 -5.984375 C 11.3125 -5.984375 11.78125 -6.078125 12.375 -6.265625 C 12.96875 -6.453125 13.488281 -6.71875 13.9375 -7.0625 L 14.640625 -7.578125 L 14.640625 -19.109375 L 21.703125 -19.109375 L 21.703125 -0.09375 L 21.40625 -0.046875 C 21.21875 -0.015625 20.625 0 19.625 0 C 19.125 0 18.53125 0 17.84375 0 L 14.6875 0 C 14.625 -0.8125 14.5625 -1.21875 14.5 -1.21875 C 14.40625 -1.21875 14.203125 -1.109375 13.890625 -0.890625 C 13.128906 -0.359375 12.015625 0 10.546875 0.1875 C 9.878906 0.28125 9.25 0.328125 8.65625 0.328125 C 7.71875 0.328125 6.726562 0.171875 5.6875 -0.140625 C 4.65625 -0.453125 3.8125 -1.082031 3.15625 -2.03125 C 2.625 -2.875 2.296875 -3.882812 2.171875 -5.0625 C 2.046875 -6.238281 1.984375 -8.816406 1.984375 -12.796875 Z M 1.984375 -12.796875 "/></g></g></g><g fill="#000000" fill-opacity="1"><g transform="translate(336.288181, 262.422264)"><g><path d="M 3.953125 -25.890625 L 11.0625 -25.890625 L 11.0625 -19.109375 L 15.34375 -19.015625 L 15.34375 -13.078125 L 11.0625 -13.078125 L 11.0625 -10.40625 C 11.0625 -8.707031 11.066406 -7.671875 11.078125 -7.296875 C 11.097656 -6.921875 11.1875 -6.65625 11.34375 -6.5 C 11.71875 -6.082031 12.582031 -5.875 13.9375 -5.875 L 15.15625 -5.875 L 15.15625 -2.828125 C 15.15625 -1.441406 15.140625 -0.566406 15.109375 -0.203125 C 15.078125 0.148438 15.015625 0.34375 14.921875 0.375 C 14.734375 0.46875 14.054688 0.515625 12.890625 0.515625 C 12.703125 0.515625 12.160156 0.503906 11.265625 0.484375 C 10.378906 0.472656 9.742188 0.421875 9.359375 0.328125 C 7.328125 -0.140625 5.976562 -1.019531 5.3125 -2.3125 C 4.8125 -3.25 4.457031 -4.148438 4.25 -5.015625 C 4.050781 -5.878906 3.953125 -7.582031 3.953125 -10.125 L 3.953125 -13.078125 L 0.65625 -13.078125 L 0.65625 -19.015625 L 3.953125 -19.109375 Z M 3.953125 -25.890625 "/></g></g></g></svg>